<svg id="Layer_1" data-name="Layer 1" xmlns="http://www.w3.org/2000/svg" viewBox="0 0 1194.67 536.78"><defs><style>.cls-1{fill:#2271a4;}.cls-2{fill:#fff;}</style></defs><path class="cls-1" d="M.25,269.23q0-110.49,0-221c0-30.21,17.6-48,48-48Q160.13,0,272,.09c47.91.06,34.11-3.41,65.35,27.15,24.63,24.09,48.67,48.78,73.21,73,7.22,7.12,10.68,15.17,10.62,25.31q-.31,48.12,0,96.24c.08,10.53-4.61,18.69-20.11,19.17-12.46.38-19.24-6.52-19.29-19.08-.1-24.65-.24-49.31.1-73.95.1-6.93-1.81-9.38-9.06-9.21-20.79.46-41.58.24-62.38.13-16.53-.08-26.59-9.87-26.82-26.46-.29-19.9-.12-39.8-.2-59.7,0-10.93-1-11.84-11.47-11.84q-109.6,0-219.21,0C41.9,40.81,39.8,42.9,39.8,53.72q0,213.86,0,427.72c0,12.75,2.8,15.52,15.67,15.53,47.23,0,94.46.14,141.69-.11a47.92,47.92,0,0,1,25.15,6.71c17.36,10,35.12,9.42,52.21-.71A39.46,39.46,0,0,1,295.3,497q36.09,0,72.18,0c11.9,0,14.26-2.48,14.26-14.75q0-37,0-74c0-7.82,16.38-26.08,24-26.89,6.41-.68,15,5.58,14.94,12.5-.34,36.2,2.45,72.49-1.44,108.55-1.4,13-9.51,22-22.56,28.07-11.66,5.47-23,6.21-35,6.22q-151.92.09-303.86.11c-5.05,0-10.13-.59-15.14-.18C21.1,538.38-.17,513,0,492.9.65,418.35.26,343.79.25,269.23Z"/><path class="cls-1" d="M249,424.11c1.8-6.18,6-8.87,9.22-12.24q57.7-60,115.57-119.89c7.2-7.46,14.82-11.78,26.38-9.47,11.81,2.36,17.53,9.44,20.29,19.54,2.65,9.75-1.37,17.34-8.29,25.19C392,350.13,370.5,371.65,349.1,393.32c-24,24.3-48.35,48.22-72.25,72.6-5.6,5.71-12.39,9.68-18.48,14.64-6.45,5.26-18.69,3.49-27.05-3.89-13.34-11.77-26.23-24.08-39.11-36.36-7.52-7.17-14.38-15.05-22.05-22-14.46-13.18-10.86-30.94-2.51-39.56,10.29-10.62,26.7-9.49,39.34,3.05C220.89,395.55,234.58,409.54,249,424.11Z"/><path class="cls-1" d="M199.3,247.07c-30,0-59.91-.19-89.86.09-12.46.11-22.75-8.81-22-20.7s6.79-18.29,19.18-18.3q80.08-.07,160.16,0c8.6,0,17.2-.12,25.8,0,10.57.13,16.73,5.69,17.82,15.81,1.19,11.13-3.83,19.18-13.43,22.16a31.62,31.62,0,0,1-9.64,1.06H199.3Z"/><path class="cls-1" d="M159.07,291.36c17.52,0,35.05-.19,52.57.06,14.17.2,19.09,5.25,19,18.55,0,13-5.81,19.06-19,19.11q-52.12.19-104.25-.11c-14.53-.1-20.6-7-19.73-21.23.62-10.2,5.86-15.75,16.18-15.91,18.41-.29,36.82-.08,55.24-.08Z"/><path class="cls-1" d="M161.53,163.89c-18.69,0-37.38,0-56.06,0-10.64,0-17.06-6.18-17.66-16.71-.67-11.75,4.21-18.77,15.33-19.63,12.09-.94,24.28-.62,36.43-.66,25.51-.1,51-.33,76.53,0,15.63.2,22.13,9,18.69,23.82-2,8.7-7.27,13.18-16.31,13.16-19,0-38,0-56.95,0Z"/><path class="cls-2" d="M462.16,129.81H612v56.94H519.92V301.46h79.19V358.6H519.92V530.25H462.16Z"/><path class="cls-2" d="M754.84,207.57q0-27.15-24.9-27.15h-.41q-25.11.21-25.11,27.15v53.88H646.66V207.57q0-84.09,83.07-84.09,82.86,0,82.87,84.09V452.49q0,84.3-82.87,84.29-83.07-.19-83.07-84.29V385.34q0-84.09,63.48-84.29,27.55,0,44.7,12.86ZM704.42,452.49q0,27.15,25.31,27.15,25.11,0,25.11-27.15V385.14q-.21-26.94-25.11-26.94-25.31,0-25.31,27.14Z"/><path class="cls-2" d="M857.5,0h57.76V308l61.43-178.18h61.85L962.2,330l76.34,200.22H976.69l-61.43-178v178H857.5Z"/><path class="cls-2" d="M1150,129.81h44.7v56.94H1150v343.5h-57.76V186.75h-41.43V129.81h41.43V0H1150Z"/></svg>